# xmcd
#
# Track frame offsets: 
#        150
#        21877
#        42541
#        64977
#        83392
#        104248
#        126354
#        152720
#        185927
#        212739
#        231562
#        254812
#        278101
#        302764
#        337439
#
# Disc length: 4753 seconds
#
# Revision: 0
# Processed by: cddbd v1.5.2PL0 Copyright (c) Steve Scherf et al.
# Submitted via: ExactAudioCopy v0.95b3
#
DISCID=f5128f0f
DTITLE=Maria Muldaur - Live In Concert
DYEAR=2008
DGENRE=Blues
TTITLE0=Buckets Of Love
TTITLE1=Lay Lady Lay
TTITLE2=To Be Alone With You
TTITLE3=Heart Of Mine
TTITLE4=Make You Feel My Love
TTITLE5=Meet Me In The Moonlite
TTITLE6=Your Gonna Make Me Lonesome
TTITLE7=Cajun Moon
TTITLE8=Golden Loom
TTITLE9=On A Night Like This
TTITLE10=I'll Be Your Baby Tonight
TTITLE11=Shoe Don't Fit
TTITLE12=Midnite At The Oasis
TTITLE13=Wedding Song
TTITLE14=Ride me High
EXTD=
EXTT0=
EXTT1=
EXTT2=
EXTT3=
EXTT4=
EXTT5=
EXTT6=
EXTT7=
EXTT8=
EXTT9=
EXTT10=
EXTT11=
EXTT12=
EXTT13=
EXTT14=
PLAYORDER=
